# File created by Blade
# Date/Time:  Wed Jan 21 17:16:23 2015
# Frame Rate: 120.000 fps
#------------------------------------------------------
:FULLY-SPECIFIED
:DEGREES
400
root 20.218323 20.223842 -16.145506 -146.922048 -8.691824 -170.856460
Spine 65.237131 -0.272331 6.647775
Head -11.152461 3.159410 3.303972
LeftShoulder 16.910375 -38.858510 -0.794910
LeftArm 26.803693 22.138659 -51.598703
LeftForeArm -15.740828 0.000000 20.315655
LeftHand -6.468853 -0.000000 35.473372
LeftHandThumb1 -26.253704 0.000000 33.147579
RightShoulder 20.973925 20.619695 -7.666529
RightArm 35.564280 -7.927926 55.825909
RightForeArm -14.966068 -0.000000 22.243909
RightHand -13.251973 -0.000000 -22.293507
RightHandThumb1 -24.326973 -0.000000 -32.862282
LeftUpLeg -53.108001 45.255825 -13.785891
LeftLeg 102.712261 -0.000000 -0.000000
LeftFoot 35.189304 -0.130405 -1.853931
LeftToeBase 51.668351 -0.000000 -0.000000
RightUpLeg -100.887752 15.892155 16.772140
RightLeg 106.848599 -0.000000 -0.000000
RightFoot -62.463022 -31.339037 28.436300
RightToeBase 22.386271 -0.000000 -0.000000
401
root 20.244723 20.108174 -16.104505 -147.197230 -8.827261 -171.130627
Spine 65.098214 -0.234165 6.702823
Head -10.906900 2.665374 3.541239
LeftShoulder 16.944607 -38.806899 -0.869126
LeftArm 26.885329 22.447550 -51.702501
LeftForeArm -15.612515 0.000000 20.402415
LeftHand -6.423719 -0.000000 35.523451
LeftHandThumb1 -26.253704 0.000000 33.147579
RightShoulder 20.827342 19.970877 -7.654629
RightArm 36.097528 -8.408867 54.882852
RightForeArm -15.528233 -0.000000 21.412094
RightHand -12.881729 -0.000000 -21.883925
RightHandThumb1 -24.326973 -0.000000 -32.862282
LeftUpLeg -52.965965 45.391242 -13.449597
LeftLeg 103.095407 -0.000000 -0.000000
LeftFoot 36.443939 -0.122542 -1.950398
LeftToeBase 53.278762 -0.000000 -0.000000
RightUpLeg -101.247723 16.715350 15.478024
RightLeg 107.236598 -0.000000 -0.000000
RightFoot -62.911809 -32.304914 29.388017
RightToeBase 22.478809 -0.000000 -0.000000
402
root 20.268069 19.992012 -16.061536 -147.505662 -8.985226 -171.423693
Spine 64.979585 -0.218444 6.766386
Head -10.631593 2.270823 3.724767
LeftShoulder 17.050143 -38.719249 -0.923496
LeftArm 26.913894 22.648101 -51.847730
LeftForeArm -15.459343 -0.000000 20.555086
LeftHand -6.430768 0.000000 35.515977
LeftHandThumb1 -26.253704 0.000000 33.147579
RightShoulder 20.645828 19.359417 -7.629621
RightArm 36.663835 -8.972375 53.865609
RightForeArm -16.118745 0.000000 20.611388
RightHand -12.368822 -0.000000 -21.345480
RightHandThumb1 -24.326973 -0.000000 -32.862282
LeftUpLeg -52.752177 45.466912 -13.079339
LeftLeg 103.518066 -0.000000 -0.000000
LeftFoot 37.473436 -0.292744 -2.132990
LeftToeBase 54.444127 -0.000000 -0.000000
RightUpLeg -101.595324 17.456984 14.259105
RightLeg 107.639277 -0.000000 -0.000000
RightFoot -63.314321 -33.339995 30.274173
RightToeBase 22.706950 -0.000000 -0.000000
403
root 20.290833 19.873485 -16.020000 -147.836002 -9.098589 -171.722203
Spine 64.878793 -0.180969 6.765730
Head -10.370797 1.947165 3.883098
LeftShoulder 17.057719 -38.590148 -0.984033
LeftArm 27.122571 22.985007 -51.812080
LeftForeArm -15.450751 -0.000000 20.605837
LeftHand -6.409549 -0.000000 35.478481
LeftHandThumb1 -26.253704 0.000000 33.147579
RightShoulder 20.513501 18.788833 -7.604863
RightArm 37.180000 -9.513039 52.923417
RightForeArm -17.160278 0.000000 19.937778
RightHand -12.099113 -0.000000 -20.761133
RightHandThumb1 -24.326973 -0.000000 -32.862282
LeftUpLeg -52.508397 45.587224 -12.745604
LeftLeg 103.916502 -0.000000 -0.000000
LeftFoot 38.195417 -0.027408 -2.576863
LeftToeBase 56.262725 -0.000000 -0.000000
RightUpLeg -101.967719 18.200480 13.050919
RightLeg 108.086966 -0.000000 -0.000000
RightFoot -63.703254 -34.159144 31.333604
RightToeBase 23.012169 -0.000000 -0.000000
404
root 20.305098 19.762314 -15.989869 -148.293732 -9.239104 -171.941685
Spine 64.956659 -0.249524 6.810221
Head -10.203217 1.722161 3.859978
LeftShoulder 16.981488 -38.379365 -1.007573
LeftArm 27.413935 23.189467 -51.746851
LeftForeArm -15.508264 -0.000000 20.684568
LeftHand -6.384848 0.000000 35.501327
LeftHandThumb1 -26.253704 0.000000 33.147579
RightShoulder 20.458251 18.247556 -7.652650
RightArm 37.691114 -10.058390 51.904162
RightForeArm -18.356020 -0.000000 19.479890
RightHand -12.066831 -0.000000 -20.186952
RightHandThumb1 -24.326973 -0.000000 -32.862282
LeftUpLeg -52.034303 45.714928 -12.193858
LeftLeg 104.346639 -0.000000 -0.000000
LeftFoot 38.551477 0.144356 -2.862814
LeftToeBase 57.863128 -0.000000 -0.000000
RightUpLeg -101.914373 18.034142 13.035309
RightLeg 108.525608 -0.000000 -0.000000
RightFoot -63.844835 -34.362364 31.415503
RightToeBase 23.056663 -0.000000 -0.000000
405
root 20.313341 19.652431 -15.959251 -148.764586 -9.368013 -172.184549
Spine 65.054307 -0.286534 6.883801
Head -10.069861 1.460146 3.864230
LeftShoulder 17.078807 -38.432937 -1.128713
LeftArm 27.423258 23.461867 -51.876731
LeftForeArm -15.443742 -0.000000 20.751707
LeftHand -6.410713 -0.000000 35.467277
LeftHandThumb1 -26.253704 0.000000 33.147579
RightShoulder 20.301310 17.563928 -7.719466
RightArm 38.350952 -10.631185 50.661502
RightForeArm -18.932537 0.000000 19.098907
RightHand -12.503521 -0.000000 -19.950975
RightHandThumb1 -24.326973 -0.000000 -32.862282
LeftUpLeg -51.514760 45.869927 -11.684754
LeftLeg 104.663255 -0.000000 -0.000000
LeftFoot 39.143421 0.921476 -3.129851
LeftToeBase 59.308657 -0.000000 -0.000000
RightUpLeg -101.851020 17.850708 13.004244
RightLeg 108.978210 -0.000000 -0.000000
RightFoot -63.981098 -34.564147 31.528592
RightToeBase 23.105953 -0.000000 -0.000000
406
root 20.325253 19.539579 -15.920199 -149.173072 -9.474060 -172.461560
Spine 65.064258 -0.305427 6.871091
Head -9.942705 1.227971 3.870432
LeftShoulder 17.069106 -38.217066 -1.124579
LeftArm 27.658009 23.594529 -51.887224
LeftForeArm -15.404566 -0.000000 20.814685
LeftHand -6.386678 -0.000000 35.499491
LeftHandThumb1 -26.253704 0.000000 33.147579
RightShoulder 20.136722 16.961766 -7.762470
RightArm 38.971904 -11.150083 49.596775
RightForeArm -18.611441 0.000000 18.627178
RightHand -12.412619 -0.000000 -19.363871
RightHandThumb1 -24.326973 -0.000000 -32.862282
LeftUpLeg -51.157806 46.001213 -11.337973
LeftLeg 105.036184 -0.000000 -0.000000
LeftFoot 39.622240 1.620966 -3.639964
LeftToeBase 61.070178 -0.000000 -0.000000
RightUpLeg -101.893046 17.748421 12.877309
RightLeg 109.432549 -0.000000 -0.000000
RightFoot -64.076448 -34.613947 31.755079
RightToeBase 22.745649 -0.000000 -0.000000
407
root 20.328103 19.428537 -15.881790 -149.578792 -9.576143 -172.774318
Spine 65.082794 -0.367846 6.802699
Head -9.826886 1.049321 3.854596
LeftShoulder 17.046911 -38.160177 -1.188053
LeftArm 27.855135 23.909338 -51.892345
LeftForeArm -15.418365 -0.000000 20.734493
LeftHand -6.292661 -0.000000 35.648334
LeftHandThumb1 -26.253704 0.000000 33.147579
RightShoulder 19.996568 16.321216 -7.824097
RightArm 39.571937 -11.597310 48.564184
RightForeArm -17.742234 -0.000000 18.265173
RightHand -12.268846 -0.000000 -19.146593
RightHandThumb1 -24.326973 -0.000000 -32.862282
LeftUpLeg -50.759131 46.074016 -11.044450
LeftLeg 105.400978 -0.000000 -0.000000
LeftFoot 39.995473 2.094566 -3.804566
LeftToeBase 62.061736 -0.000000 -0.000000
RightUpLeg -101.929625 17.544086 12.749205
RightLeg 109.905567 -0.000000 -0.000000
RightFoot -64.164367 -34.744791 31.839272
RightToeBase 22.729952 -0.000000 -0.000000
408
root 20.326946 19.315975 -15.833068 -149.928264 -9.685752 -173.154066
Spine 65.034964 -0.468587 6.649723
Head -9.705953 0.870217 3.843902
LeftShoulder 16.997539 -38.023851 -1.164319
LeftArm 28.029254 24.131342 -51.912952
LeftForeArm -15.374905 -0.000000 20.756743
LeftHand -6.343420 0.000000 35.767799
LeftHandThumb1 -26.253704 0.000000 33.147579
RightShoulder 19.883371 15.721156 -7.915925
RightArm 40.028346 -11.921589 47.794127
RightForeArm -17.330737 -0.000000 18.113738
RightHand -12.254703 -0.000000 -18.964100
RightHandThumb1 -24.326973 -0.000000 -32.862282
LeftUpLeg -50.495415 46.104658 -10.942094
LeftLeg 105.713229 -0.000000 -0.000000
LeftFoot 40.738088 2.870399 -3.931160
LeftToeBase 62.179753 -0.000000 -0.000000
RightUpLeg -102.068983 17.304322 12.540472
RightLeg 110.385832 -0.000000 -0.000000
RightFoot -64.208650 -34.886607 31.900192
RightToeBase 22.727917 -0.000000 -0.000000
409
root 20.326560 19.205468 -15.787634 -150.281650 -9.798967 -173.509896
Spine 64.998094 -0.576907 6.500678
Head -9.614913 0.692760 3.790575
LeftShoulder 16.964509 -38.016716 -1.189915
LeftArm 28.047259 24.320459 -52.054436
LeftForeArm -15.187623 -0.000000 20.764109
LeftHand -6.398762 -0.000000 35.751013
LeftHandThumb1 -26.253704 0.000000 33.147579
RightShoulder 19.793755 15.281812 -8.011730
RightArm 40.255458 -12.123786 47.404729
RightForeArm -17.450521 -0.000000 18.105598
RightHand -12.362285 -0.000000 -18.802755
RightHandThumb1 -24.326973 -0.000000 -32.862282
LeftUpLeg -50.225385 46.147407 -10.828188
LeftLeg 106.004679 -0.000000 -0.000000
LeftFoot 41.211330 3.361508 -3.777240
LeftToeBase 63.102139 -0.000000 -0.000000
RightUpLeg -102.194108 17.079927 12.365055
RightLeg 110.872755 -0.000000 -0.000000
RightFoot -64.284221 -34.967659 32.079885
RightToeBase 22.744458 -0.000000 -0.000000
